/* XPM */
static char *b1fda7334ee04096d9a6e0a8e3dba420LpHYvmwWJJrMYNzX[] = {
/* columns rows colors chars-per-pixel */
"20 20 51 1 ",
"  c None",
". c #0B9F17",
"X c #0A9F18",
"o c #0B9F18",
"O c #0B9F19",
"+ c #0A9F1A",
"@ c #0B9F1A",
"# c #0C9F1A",
"$ c #0BA018",
"% c #0BA019",
"& c #0BA01A",
"* c #0DA01C",
"= c #13A220",
"- c #14A222",
"; c #14A322",
": c #19A526",
"> c #1AA528",
", c #1BA528",
"< c #1BA629",
"1 c #1CA529",
"2 c #1FA72B",
"3 c #21A82E",
"4 c #23A82F",
"5 c #23A930",
"6 c #24A930",
"7 c #24A931",
"8 c #26A932",
"9 c #26AA32",
"0 c #28AB34",
"q c #2BAC37",
"w c #2DAD37",
"e c #2CAB38",
"r c #2DAD39",
"t c #2DAC3A",
"y c #2FAD3B",
"u c #31AE3D",
"i c #31AE3E",
"p c #33AF40",
"a c #35B041",
"s c #37B042",
"d c #37B143",
"f c #39B245",
"g c #3AB246",
"h c #3BB246",
"j c #3CB247",
"k c #3DB248",
"l c #3EB248",
"z c #3EB349",
"x c #45B650",
"c c #48B752",
"v c #4EB958",
/* pixels */
"                    ",
"         &,         ",
"         *;         ",
"         ;;         ",
"        2,:e        ",
"        9939        ",
"        wq09h       ",
"       spurru       ",
"      kkjhspuk      ",
"      cxhq949e      ",
"     vk,+++ooo=     ",
"     2#o+..+oo+     ",
"    +oooo  +ooo#    ",
"    #o#+    #+o+    ",
"   ++ooo    @#o#+   ",
"  oo#ooo    &oo+@   ",
"  ooo#@+     +oooo  ",
" *ooo          %+#@ ",
" ++              %o ",
"                    "
};
