/* XPM */
static char *_0d760a4ec92445b8931fb9ad3a13d38n0P4o4ve3khiO6AV[] = {
/* columns rows colors chars-per-pixel */
"16 16 36 1 ",
"  c None",
". c #1792D1",
"X c #1793D1",
"o c #1793D2",
"O c #1794D1",
"+ c #1893D1",
"@ c #1994D1",
"# c #1C95D2",
"$ c #1F97D2",
"% c #2397D3",
"& c #2399D3",
"* c #2699D3",
"= c #2298D4",
"- c #269BD4",
"; c #279BD4",
": c #2D9DD5",
"> c #2E9ED6",
", c #2F9ED6",
"< c #309FD5",
"1 c #329FD5",
"2 c #309FD6",
"3 c #319FD6",
"4 c #32A0D6",
"5 c #36A1D7",
"6 c #38A3D7",
"7 c #3AA3D8",
"8 c #3CA3D9",
"9 c #3CA4D8",
"0 c #3EA4D9",
"q c #41A6DA",
"w c #48AADB",
"e c #49AADB",
"r c #4CACDB",
"t c #49ABDC",
"y c #4DACDC",
"u c #57B1DE",
/* pixels */
"                ",
"       X-       ",
"       @=       ",
"      *&$1      ",
"      4>->      ",
"      9611      ",
"     rwq959     ",
"    tuy72,18    ",
"    w:@oXXX#    ",
"   %@oo  XXX    ",
"   XOXo  XXXX   ",
"  +XXX    XXo   ",
"  XXoo    ooo   ",
" +XXo      ooo@ ",
" XX          +X ",
"                "
};
