/* XPM */
static char *_8a0f1517f4948e9ae0b28cff5d0cec5HJjARudTXwoxK89F[] = {
/* columns rows colors chars-per-pixel */
"32 32 96 2 ",
"   c None",
".  c #1792D0",
"X  c #1793D0",
"o  c #1693D1",
"O  c #1793D1",
"+  c #1793D2",
"@  c #1694D1",
"#  c #1794D1",
"$  c #1892D1",
"%  c #1893D1",
"&  c #1892D2",
"*  c #1893D2",
"=  c #1994D1",
"-  c #1A94D2",
";  c #1B95D2",
":  c #1C95D2",
">  c #1C95D3",
",  c #1C96D2",
"<  c #1C97D2",
"1  c #1E96D2",
"2  c #1F97D2",
"3  c #1F97D3",
"4  c #2097D3",
"5  c #2198D3",
"6  c #2298D2",
"7  c #2298D3",
"8  c #2399D3",
"9  c #2499D4",
"0  c #269AD4",
"q  c #279BD4",
"w  c #289BD4",
"e  c #299BD4",
"r  c #299BD5",
"t  c #2A9AD5",
"y  c #2A9CD5",
"u  c #2B9CD5",
"i  c #2C9DD5",
"p  c #2D9DD5",
"a  c #2D9DD6",
"s  c #2E9ED6",
"d  c #2F9ED6",
"f  c #2F9FD6",
"g  c #309DD5",
"h  c #309ED6",
"j  c #309FD6",
"k  c #319FD6",
"l  c #32A0D6",
"z  c #33A0D7",
"x  c #34A0D7",
"c  c #34A1D7",
"v  c #35A1D7",
"b  c #36A1D6",
"n  c #36A1D7",
"m  c #36A2D7",
"M  c #37A2D7",
"N  c #38A2D7",
"B  c #3CA6D7",
"V  c #37A2D9",
"C  c #39A3D8",
"Z  c #3AA3D8",
"A  c #3AA4D8",
"S  c #3BA4D8",
"D  c #3AA4D9",
"F  c #3CA4D8",
"G  c #3CA5D9",
"H  c #3DA5D9",
"J  c #3EA5D8",
"K  c #3FA6D8",
"L  c #3FA6D9",
"P  c #40A6D9",
"I  c #42A7D8",
"U  c #42A7D9",
"Y  c #42A7DA",
"T  c #43A7DA",
"R  c #44A8D9",
"E  c #44A8DA",
"W  c #45A9DA",
"Q  c #44A9DB",
"!  c #46A9DA",
"~  c #47A9DB",
"^  c #46AADB",
"/  c #49ABDA",
"(  c #48AADB",
")  c #49AADB",
"_  c #4AABDB",
"`  c #4CACDB",
"'  c #4DADDB",
"]  c #4CABDC",
"[  c #4DACDC",
"{  c #4EADDC",
"}  c #4FADDC",
"|  c #51AEDD",
" . c #53AFDD",
".. c #55B0DD",
"X. c #56B0DD",
"o. c #57B1DE",
/* pixels */
"                                                                ",
"                              O t                               ",
"                              O t                               ",
"                            # O 3                               ",
"                            * O O v                             ",
"                            3 - # e                             ",
"                          8 8 3 3 3 N                           ",
"                          t 0 0 3 3 v                           ",
"                        k k i t q 8 i B                         ",
"                        v v k i u q t P                         ",
"                      G   v v V k i u V R                       ",
"                      R U B N Z v v k i )                       ",
"                    R _ ~ R Q G S v v z Z R                     ",
"                    | } } ) R Q U G A N V R                     ",
"                  ` X.X.| } _ ) R T G B Z Z }                   ",
"                  X.o.o.X.G f 4 3 * 3 4 0 i Q                   ",
"                ` X.` z - O O O O O O O O O * i                 ",
"                X.z - O - O O O O O O O O O O 3                 ",
"              z < # O O O O O # * O O O O O O O 3               ",
"              O O # O O O O         O O O O O O O               ",
"            * O O O O O O             O O O O O O #             ",
"            O O O O O O O             O O O O O O O             ",
"          # O O O O O O *             O O O O O O O O           ",
"          O O O O O O O               O O O O O # O O           ",
"        O O O O O O O O               # O O O O O #             ",
"      O O O O O O O O O *             O O O O O O O O O         ",
"      O O O O O O O O O                 O O O O O O O O O       ",
"    O O O O O O                               O O O O O O       ",
"    O O O O                                         O O O O     ",
"  O O O                                                 O O     ",
"  O                                                         O   ",
"                                                                "
};
