<svg width="58" height="48" viewBox="0 0 58 48" fill="none" xmlns="http://www.w3.org/2000/svg">
<path d="M49.6297 4.2627H8.47954C6.04304 4.2627 4.06787 6.31701 4.06787 8.85115V39.2574C4.06787 41.7915 6.04304 43.8458 8.47954 43.8458H49.6297C52.0662 43.8458 54.0414 41.7915 54.0414 39.2574V8.85115C54.0414 6.31701 52.0662 4.2627 49.6297 4.2627Z" fill="url(#paint0_linear)" stroke="black" stroke-linecap="round"/>
<path d="M20.8901 22.8665V22.9967L21.0946 22.0113H23.7719L22.4333 28.3326C22.4085 28.4442 22.3899 28.5495 22.3775 28.6487C22.3651 28.7355 22.3589 28.8284 22.3589 28.9276C22.3589 29.2003 22.4209 29.4048 22.5448 29.5411C22.6688 29.6651 22.8609 29.727 23.1212 29.727C23.4434 29.727 23.7347 29.5783 23.995 29.2808C24.2553 28.971 24.466 28.5371 24.6271 27.9794H25.408C25.0114 29.1197 24.497 29.9811 23.8649 30.5637C23.2327 31.1338 22.5014 31.4189 21.671 31.4189C21.138 31.4189 20.7104 31.2702 20.3881 30.9727C20.0783 30.6752 19.8985 30.2538 19.849 29.7084C19.4647 30.2786 19.0371 30.7062 18.5661 30.9913C18.1075 31.2764 17.6117 31.4189 17.0787 31.4189C16.3102 31.4189 15.7029 31.1586 15.2567 30.6381C14.8229 30.1175 14.606 29.38 14.606 28.4256C14.606 27.7315 14.7113 27.0064 14.922 26.2503C15.1327 25.4942 15.424 24.8063 15.7959 24.1866C16.2545 23.4553 16.7874 22.8975 17.3948 22.5133C18.0021 22.1166 18.6652 21.9183 19.3841 21.9183C19.8675 21.9183 20.2394 22.0051 20.4997 22.1786C20.76 22.3397 20.8901 22.5691 20.8901 22.8665ZM20.7228 23.7775C20.7228 23.5916 20.6546 23.4305 20.5183 23.2941C20.3819 23.1454 20.196 23.071 19.9605 23.071C19.2788 23.071 18.6714 23.6412 18.1385 24.7815C17.6179 25.9218 17.3576 27.0498 17.3576 28.1653C17.3576 28.6487 17.4258 29.0143 17.5621 29.2622C17.6985 29.4977 17.9402 29.6155 18.2872 29.6155C18.6095 29.6155 18.9193 29.4606 19.2168 29.1507C19.5267 28.8408 19.7312 28.4504 19.8304 27.9794L20.7228 23.7775ZM24.4852 29.1879C24.4852 29.0267 24.4976 28.847 24.5224 28.6487C24.5472 28.438 24.5844 28.2149 24.634 27.9794L26.6233 18.6647L29.375 18.2929L27.2369 28.3326C27.2121 28.4442 27.1935 28.5495 27.1811 28.6487C27.1687 28.7355 27.1625 28.8284 27.1625 28.9276C27.1625 29.1755 27.2183 29.3552 27.3298 29.4667C27.4538 29.5659 27.6521 29.6155 27.9248 29.6155C28.2718 29.6155 28.6003 29.4667 28.9102 29.1693C29.22 28.8594 29.4493 28.4628 29.5981 27.9794H30.3789C29.9823 29.1073 29.4493 29.9625 28.78 30.5451C28.1107 31.1276 27.3422 31.4189 26.4746 31.4189C25.8548 31.4189 25.3653 31.2268 25.0058 30.8426C24.6588 30.4459 24.4852 29.8944 24.4852 29.1879ZM30.2414 22.0113H30.8549L31.4127 19.4456L34.1643 19.0737L33.5322 22.0113H34.6477L34.499 22.755H33.3835L32.1936 28.3326C32.1688 28.4442 32.1502 28.5495 32.1378 28.6487C32.1254 28.7355 32.1192 28.8284 32.1192 28.9276C32.1192 29.1755 32.175 29.3552 32.2865 29.4667C32.4105 29.5659 32.6088 29.6155 32.8815 29.6155C33.2285 29.6155 33.557 29.4667 33.8669 29.1693C34.1767 28.8594 34.406 28.4628 34.5548 27.9794H35.3356C34.939 29.1073 34.406 29.9625 33.7367 30.5451C33.0674 31.1276 32.2989 31.4189 31.4313 31.4189C30.8116 31.4189 30.322 31.2268 29.9625 30.8426C29.6155 30.4459 29.4419 29.8944 29.4419 29.1879C29.4419 29.0267 29.4543 28.847 29.4791 28.6487C29.5039 28.438 29.5411 28.2149 29.5907 27.9794L30.7062 22.755H30.0927L30.2414 22.0113Z" fill="#00C0FC"/>
<path d="M5.04802 40.1321C5.04802 29.9086 5.06429 9.94313 5.04802 8.66589C5.02839 7.12378 6.69476 5.45373 8.23 5.30713C9.25426 5.20932 39.6055 5.36606 50.6246 5.39552C39.7823 5.86692 11.0989 7.30906 9.99961 7.39184C8.40241 7.51211 7.2092 8.68896 7.07023 10.8516C7.01042 11.7823 5.54889 30.0264 5.04802 40.1321Z" fill="#4B4B4B"/>
<path d="M53.2334 8.11206C53.2334 18.3356 53.2172 38.3895 53.2334 39.6667C53.2531 41.2088 51.5867 42.8789 50.0514 43.0255C49.0272 43.1233 18.9561 42.9665 7.93701 42.9371C18.7793 42.4657 48.8238 42.3131 49.9189 42.1858C50.9536 42.0655 52.2289 40.7592 52.3054 39.5341C52.3635 38.6033 52.7326 18.2178 53.2334 8.11206V8.11206Z" fill="#1E1E1E"/>
<defs>
<linearGradient id="paint0_linear" x1="41.009" y1="41.1632" x2="18.5712" y2="5.48761" gradientUnits="userSpaceOnUse">
<stop stop-color="#2D2D2D"/>
<stop offset="1" stop-color="#1E1E1E"/>
</linearGradient>
</defs>
</svg>
