<svg width="58" height="48" viewBox="0 0 58 48" fill="none" xmlns="http://www.w3.org/2000/svg">
<path d="M49.6297 4.2627H8.47954C6.04304 4.2627 4.06787 6.31701 4.06787 8.85115V39.2574C4.06787 41.7915 6.04304 43.8458 8.47954 43.8458H49.6297C52.0662 43.8458 54.0414 41.7915 54.0414 39.2574V8.85115C54.0414 6.31701 52.0662 4.2627 49.6297 4.2627Z" fill="url(#paint0_linear)" stroke="black" stroke-linecap="round"/>
<path d="M12.4517 33.5599V33.6299L12.5617 33.0999H14.0017L13.2817 36.4999C13.2683 36.5599 13.2583 36.6165 13.2517 36.6699C13.245 36.7165 13.2417 36.7665 13.2417 36.8199C13.2417 36.9665 13.275 37.0765 13.3417 37.1499C13.4083 37.2165 13.5117 37.2499 13.6517 37.2499C13.825 37.2499 13.9817 37.1699 14.1217 37.0099C14.2617 36.8432 14.375 36.6099 14.4617 36.3099H14.8817C14.6683 36.9232 14.3917 37.3865 14.0517 37.6999C13.7117 38.0065 13.3183 38.1599 12.8717 38.1599C12.585 38.1599 12.355 38.0799 12.1817 37.9199C12.015 37.7599 11.9183 37.5332 11.8917 37.2399C11.685 37.5465 11.455 37.7765 11.2017 37.9299C10.955 38.0832 10.6883 38.1599 10.4017 38.1599C9.98833 38.1599 9.66166 38.0199 9.42166 37.7399C9.18833 37.4599 9.07166 37.0632 9.07166 36.5499C9.07166 36.1765 9.12833 35.7865 9.24166 35.3799C9.35499 34.9732 9.51166 34.6032 9.71166 34.2699C9.95833 33.8765 10.245 33.5765 10.5717 33.3699C10.8983 33.1565 11.255 33.0499 11.6417 33.0499C11.9017 33.0499 12.1017 33.0965 12.2417 33.1899C12.3817 33.2765 12.4517 33.3999 12.4517 33.5599ZM12.3617 34.0499C12.3617 33.9499 12.325 33.8632 12.2517 33.7899C12.1783 33.7099 12.0783 33.6699 11.9517 33.6699C11.585 33.6699 11.2583 33.9765 10.9717 34.5899C10.6917 35.2032 10.5517 35.8099 10.5517 36.4099C10.5517 36.6699 10.5883 36.8665 10.6617 36.9999C10.735 37.1265 10.865 37.1899 11.0517 37.1899C11.225 37.1899 11.3917 37.1065 11.5517 36.9399C11.7183 36.7732 11.8283 36.5632 11.8817 36.3099L12.3617 34.0499ZM14.3853 36.9599C14.3853 36.8732 14.392 36.7765 14.4053 36.6699C14.4187 36.5565 14.4387 36.4365 14.4653 36.3099L15.5353 31.2999L17.0153 31.0999L15.8653 36.4999C15.852 36.5599 15.842 36.6165 15.8353 36.6699C15.8287 36.7165 15.8253 36.7665 15.8253 36.8199C15.8253 36.9532 15.8553 37.0499 15.9153 37.1099C15.982 37.1632 16.0887 37.1899 16.2353 37.1899C16.422 37.1899 16.5987 37.1099 16.7653 36.9499C16.932 36.7832 17.0553 36.5699 17.1353 36.3099H17.5553C17.342 36.9165 17.0553 37.3765 16.6953 37.6899C16.3353 38.0032 15.922 38.1599 15.4553 38.1599C15.122 38.1599 14.8587 38.0565 14.6653 37.8499C14.4787 37.6365 14.3853 37.3399 14.3853 36.9599ZM17.4813 33.0999H17.8113L18.1113 31.7199L19.5913 31.5199L19.2513 33.0999H19.8513L19.7713 33.4999H19.1713L18.5313 36.4999C18.518 36.5599 18.508 36.6165 18.5013 36.6699C18.4947 36.7165 18.4913 36.7665 18.4913 36.8199C18.4913 36.9532 18.5213 37.0499 18.5813 37.1099C18.648 37.1632 18.7547 37.1899 18.9013 37.1899C19.088 37.1899 19.2647 37.1099 19.4313 36.9499C19.598 36.7832 19.7213 36.5699 19.8013 36.3099H20.2213C20.008 36.9165 19.7213 37.3765 19.3613 37.6899C19.0013 38.0032 18.588 38.1599 18.1213 38.1599C17.788 38.1599 17.5247 38.0565 17.3313 37.8499C17.1447 37.6365 17.0513 37.3399 17.0513 36.9599C17.0513 36.8732 17.058 36.7765 17.0713 36.6699C17.0847 36.5565 17.1047 36.4365 17.1313 36.3099L17.7313 33.4999H17.4013L17.4813 33.0999Z" fill="#00C0FC"/>
<path d="M5.04802 40.1321C5.04802 29.9086 5.06429 9.94313 5.04802 8.66589C5.02839 7.12378 6.69476 5.45373 8.23 5.30713C9.25426 5.20932 39.6055 5.36606 50.6246 5.39552C39.7823 5.86692 11.0989 7.30906 9.99961 7.39184C8.40241 7.51211 7.2092 8.68896 7.07023 10.8516C7.01042 11.7823 5.54889 30.0264 5.04802 40.1321Z" fill="#4B4B4B"/>
<path d="M53.2334 8.11206C53.2334 18.3356 53.2172 38.3895 53.2334 39.6667C53.2531 41.2088 51.5867 42.8789 50.0514 43.0255C49.0272 43.1233 18.9561 42.9665 7.93701 42.9371C18.7793 42.4657 48.8238 42.3131 49.9189 42.1858C50.9536 42.0655 52.2289 40.7592 52.3054 39.5341C52.3635 38.6033 52.7326 18.2178 53.2334 8.11206V8.11206Z" fill="#1E1E1E"/>
<defs>
<linearGradient id="paint0_linear" x1="41.009" y1="41.1632" x2="18.5712" y2="5.48761" gradientUnits="userSpaceOnUse">
<stop stop-color="#2C2C2C"/>
<stop offset="1" stop-color="#1E1E1E"/>
</linearGradient>
</defs>
</svg>
