<svg width="58" height="48" viewBox="0 0 58 48" fill="none" xmlns="http://www.w3.org/2000/svg">
<path d="M49.575 4.2627H8.42486C5.98836 4.2627 4.01318 6.31701 4.01318 8.85115V39.2574C4.01318 41.7915 5.98836 43.8458 8.42486 43.8458H49.575C52.0115 43.8458 53.9867 41.7915 53.9867 39.2574V8.85115C53.9867 6.31701 52.0115 4.2627 49.575 4.2627Z" fill="url(#paint0_linear)" stroke="black" stroke-linecap="round"/>
<path d="M13.0683 22.8665V22.9967L13.2728 22.0113H15.9501L14.6115 28.3326C14.5867 28.4442 14.5681 28.5495 14.5557 28.6487C14.5433 28.7355 14.5371 28.8284 14.5371 28.9276C14.5371 29.2003 14.5991 29.4048 14.723 29.5411C14.847 29.6651 15.0391 29.727 15.2994 29.727C15.6217 29.727 15.9129 29.5783 16.1732 29.2808C16.4335 28.971 16.6442 28.5371 16.8054 27.9794H17.5862C17.1896 29.1197 16.6752 29.9811 16.0431 30.5637C15.4109 31.1338 14.6797 31.4189 13.8492 31.4189C13.3162 31.4189 12.8886 31.2702 12.5663 30.9727C12.2565 30.6752 12.0768 30.2538 12.0272 29.7084C11.6429 30.2786 11.2153 30.7062 10.7443 30.9913C10.2857 31.2764 9.78991 31.4189 9.25694 31.4189C8.48846 31.4189 7.88112 31.1586 7.43491 30.6381C7.00109 30.1175 6.78418 29.38 6.78418 28.4256C6.78418 27.7315 6.88954 27.0064 7.10025 26.2503C7.31096 25.4942 7.60224 24.8063 7.97408 24.1866C8.43269 23.4553 8.96566 22.8975 9.57301 22.5133C10.1804 22.1166 10.8435 21.9183 11.5624 21.9183C12.0458 21.9183 12.4176 22.0051 12.6779 22.1786C12.9382 22.3397 13.0683 22.5691 13.0683 22.8665ZM12.901 23.7775C12.901 23.5916 12.8328 23.4305 12.6965 23.2941C12.5601 23.1454 12.3742 23.071 12.1387 23.071C11.457 23.071 10.8497 23.6412 10.3167 24.7815C9.79611 25.9218 9.53582 27.0498 9.53582 28.1653C9.53582 28.6487 9.60399 29.0143 9.74034 29.2622C9.87668 29.4977 10.1184 29.6155 10.4654 29.6155C10.7877 29.6155 11.0976 29.4606 11.395 29.1507C11.7049 28.8408 11.9094 28.4504 12.0086 27.9794L12.901 23.7775ZM16.6634 29.1879C16.6634 29.0267 16.6758 28.847 16.7006 28.6487C16.7254 28.438 16.7626 28.2149 16.8122 27.9794L18.8015 18.6647L21.5532 18.2929L19.4151 28.3326C19.3903 28.4442 19.3717 28.5495 19.3593 28.6487C19.3469 28.7355 19.3407 28.8284 19.3407 28.9276C19.3407 29.1755 19.3965 29.3552 19.5081 29.4667C19.632 29.5659 19.8303 29.6155 20.103 29.6155C20.4501 29.6155 20.7785 29.4667 21.0884 29.1693C21.3983 28.8594 21.6276 28.4628 21.7763 27.9794H22.5572C22.1605 29.1073 21.6276 29.9625 20.9582 30.5451C20.2889 31.1276 19.5204 31.4189 18.6528 31.4189C18.0331 31.4189 17.5435 31.2268 17.184 30.8426C16.837 30.4459 16.6634 29.8944 16.6634 29.1879ZM22.4196 22.0113H23.0332L23.5909 19.4456L26.3426 19.0737L25.7104 22.0113H26.826L26.6772 22.755H25.5617L24.3718 28.3326C24.347 28.4442 24.3284 28.5495 24.316 28.6487C24.3036 28.7355 24.2974 28.8284 24.2974 28.9276C24.2974 29.1755 24.3532 29.3552 24.4648 29.4667C24.5887 29.5659 24.787 29.6155 25.0597 29.6155C25.4068 29.6155 25.7352 29.4667 26.0451 29.1693C26.355 28.8594 26.5843 28.4628 26.733 27.9794H27.5139C27.1172 29.1073 26.5843 29.9625 25.9149 30.5451C25.2456 31.1276 24.4771 31.4189 23.6095 31.4189C22.9898 31.4189 22.5002 31.2268 22.1407 30.8426C21.7937 30.4459 21.6202 29.8944 21.6202 29.1879C21.6202 29.0267 21.6325 28.847 21.6573 28.6487C21.6821 28.438 21.7193 28.2149 21.7689 27.9794L22.8844 22.755H22.2709L22.4196 22.0113ZM32.768 22.8665V22.9781L32.9726 22.0113H35.6498L33.8092 30.6381C34.4289 30.4149 34.9123 30.1051 35.2594 29.7084C35.6188 29.2994 35.9163 28.7231 36.1518 27.9794H36.9327C36.6476 28.9214 36.2386 29.6775 35.7056 30.2476C35.185 30.8178 34.4971 31.2206 33.6419 31.4561L33.363 32.7947C33.1399 33.8359 32.7495 34.623 32.1917 35.156C31.6339 35.6889 30.9088 35.9554 30.0164 35.9554C29.3843 35.9554 28.8761 35.7943 28.4918 35.472C28.12 35.1498 27.9341 34.7097 27.9341 34.152C27.9341 33.5446 28.182 33.0055 28.6778 32.5345C29.186 32.0758 29.9482 31.6916 30.9646 31.3817L31.1877 30.3964C30.8654 30.731 30.5184 30.9851 30.1465 31.1586C29.7747 31.3322 29.3781 31.4189 28.9567 31.4189C28.1882 31.4189 27.5808 31.1586 27.1346 30.6381C26.7008 30.1175 26.4839 29.38 26.4839 28.4256C26.4839 27.7315 26.5892 27.0064 26.8 26.2503C27.0107 25.4942 27.3019 24.8063 27.6738 24.1866C28.1324 23.4553 28.6654 22.8975 29.2727 22.5133C29.8801 22.1166 30.5432 21.9183 31.2621 21.9183C31.7455 21.9183 32.1173 22.0051 32.3776 22.1786C32.6379 22.3397 32.768 22.5691 32.768 22.8665ZM32.6007 23.759C32.5883 23.5606 32.514 23.3995 32.3776 23.2756C32.2413 23.1392 32.0615 23.071 31.8384 23.071C31.1567 23.071 30.5494 23.6412 30.0164 24.7815C29.4958 25.9218 29.2355 27.0498 29.2355 28.1653C29.2355 28.6487 29.3037 29.0143 29.44 29.2622C29.5764 29.4977 29.8181 29.6155 30.1651 29.6155C30.4626 29.6155 30.7539 29.4791 31.039 29.2065C31.3364 28.9338 31.541 28.5867 31.6525 28.1653L32.6007 23.759ZM30.7787 32.3114C30.1589 32.5469 29.7003 32.7885 29.4029 33.0364C29.1054 33.2967 28.9567 33.5818 28.9567 33.8917C28.9567 34.0528 29.0186 34.1954 29.1426 34.3193C29.2665 34.4433 29.4153 34.5052 29.5888 34.5052C29.7995 34.5052 30.004 34.3565 30.2023 34.059C30.4006 33.7615 30.5556 33.3587 30.6671 32.8505L30.7787 32.3114ZM37.9924 31.3074H35.3152L37.2859 22.0113H39.9632L39.7215 23.164C40.2669 22.7054 40.6945 22.4017 41.0044 22.253C41.3266 22.0919 41.6489 22.0113 41.9712 22.0113C42.3554 22.0113 42.6653 22.1476 42.9008 22.4203C43.1363 22.6806 43.254 23.0091 43.254 23.4057C43.254 23.7899 43.1301 24.1122 42.8822 24.3725C42.6343 24.6328 42.312 24.7629 41.9154 24.7629C41.7047 24.7629 41.5374 24.7134 41.4134 24.6142C41.3018 24.515 41.2213 24.3105 41.1717 24.0007C41.1345 23.8023 41.0911 23.6784 41.0416 23.6288C40.992 23.5668 40.9238 23.5358 40.837 23.5358C40.6263 23.5358 40.428 23.5792 40.2421 23.666C40.0562 23.7528 39.8021 23.9449 39.4798 24.2423L37.9924 31.3074Z" fill="#00C0FC"/>
<path d="M5.04802 40.1321C5.04802 29.9086 5.06429 9.94313 5.04802 8.66589C5.02839 7.12378 6.69476 5.45373 8.23 5.30713C9.25426 5.20932 39.6055 5.36606 50.6246 5.39552C39.7823 5.86692 11.0989 7.30906 9.99961 7.39184C8.40241 7.51211 7.2092 8.68896 7.07023 10.8516C7.01042 11.7823 5.54889 30.0264 5.04802 40.1321Z" fill="#4B4B4B"/>
<path d="M53.2334 8.11206C53.2334 18.3356 53.2172 38.3895 53.2334 39.6667C53.2531 41.2088 51.5867 42.8789 50.0514 43.0255C49.0272 43.1233 18.9561 42.9665 7.93701 42.9371C18.7793 42.4657 48.8238 42.3131 49.9189 42.1858C50.9536 42.0655 52.2289 40.7592 52.3054 39.5341C52.3635 38.6033 52.7326 18.2178 53.2334 8.11206V8.11206Z" fill="#1E1E1E"/>
<defs>
<linearGradient id="paint0_linear" x1="40.9543" y1="41.1632" x2="18.5165" y2="5.48761" gradientUnits="userSpaceOnUse">
<stop stop-color="#2D2D2D"/>
<stop offset="1" stop-color="#1E1E1E"/>
</linearGradient>
</defs>
</svg>
