<svg width="58" height="48" viewBox="0 0 58 48" fill="none" xmlns="http://www.w3.org/2000/svg">
<path d="M49.6297 4.2627H8.47954C6.04304 4.2627 4.06787 6.31701 4.06787 8.85115V39.2574C4.06787 41.7915 6.04304 43.8458 8.47954 43.8458H49.6297C52.0662 43.8458 54.0414 41.7915 54.0414 39.2574V8.85115C54.0414 6.31701 52.0662 4.2627 49.6297 4.2627Z" fill="url(#paint0_linear)" stroke="black" stroke-linecap="round"/>
<path d="M12.4517 33.5599V33.6299L12.5617 33.0999H14.0017L13.2817 36.4999C13.2683 36.5599 13.2583 36.6165 13.2517 36.6699C13.245 36.7165 13.2417 36.7665 13.2417 36.8199C13.2417 36.9665 13.275 37.0765 13.3417 37.1499C13.4083 37.2165 13.5117 37.2499 13.6517 37.2499C13.825 37.2499 13.9817 37.1699 14.1217 37.0099C14.2617 36.8432 14.375 36.6099 14.4617 36.3099H14.8817C14.6683 36.9232 14.3917 37.3865 14.0517 37.6999C13.7117 38.0065 13.3183 38.1599 12.8717 38.1599C12.585 38.1599 12.355 38.0799 12.1817 37.9199C12.015 37.7599 11.9183 37.5332 11.8917 37.2399C11.685 37.5465 11.455 37.7765 11.2017 37.9299C10.955 38.0832 10.6883 38.1599 10.4017 38.1599C9.98833 38.1599 9.66166 38.0199 9.42166 37.7399C9.18833 37.4599 9.07166 37.0632 9.07166 36.5499C9.07166 36.1765 9.12833 35.7865 9.24166 35.3799C9.35499 34.9732 9.51166 34.6032 9.71166 34.2699C9.95833 33.8765 10.245 33.5765 10.5717 33.3699C10.8983 33.1565 11.255 33.0499 11.6417 33.0499C11.9017 33.0499 12.1017 33.0965 12.2417 33.1899C12.3817 33.2765 12.4517 33.3999 12.4517 33.5599ZM12.3617 34.0499C12.3617 33.9499 12.325 33.8632 12.2517 33.7899C12.1783 33.7099 12.0783 33.6699 11.9517 33.6699C11.585 33.6699 11.2583 33.9765 10.9717 34.5899C10.6917 35.2032 10.5517 35.8099 10.5517 36.4099C10.5517 36.6699 10.5883 36.8665 10.6617 36.9999C10.735 37.1265 10.865 37.1899 11.0517 37.1899C11.225 37.1899 11.3917 37.1065 11.5517 36.9399C11.7183 36.7732 11.8283 36.5632 11.8817 36.3099L12.3617 34.0499ZM14.3853 36.9599C14.3853 36.8732 14.392 36.7765 14.4053 36.6699C14.4187 36.5565 14.4387 36.4365 14.4653 36.3099L15.5353 31.2999L17.0153 31.0999L15.8653 36.4999C15.852 36.5599 15.842 36.6165 15.8353 36.6699C15.8287 36.7165 15.8253 36.7665 15.8253 36.8199C15.8253 36.9532 15.8553 37.0499 15.9153 37.1099C15.982 37.1632 16.0887 37.1899 16.2353 37.1899C16.422 37.1899 16.5987 37.1099 16.7653 36.9499C16.932 36.7832 17.0553 36.5699 17.1353 36.3099H17.5553C17.342 36.9165 17.0553 37.3765 16.6953 37.6899C16.3353 38.0032 15.922 38.1599 15.4553 38.1599C15.122 38.1599 14.8587 38.0565 14.6653 37.8499C14.4787 37.6365 14.3853 37.3399 14.3853 36.9599ZM17.4813 33.0999H17.8113L18.1113 31.7199L19.5913 31.5199L19.2513 33.0999H19.8513L19.7713 33.4999H19.1713L18.5313 36.4999C18.518 36.5599 18.508 36.6165 18.5013 36.6699C18.4947 36.7165 18.4913 36.7665 18.4913 36.8199C18.4913 36.9532 18.5213 37.0499 18.5813 37.1099C18.648 37.1632 18.7547 37.1899 18.9013 37.1899C19.088 37.1899 19.2647 37.1099 19.4313 36.9499C19.598 36.7832 19.7213 36.5699 19.8013 36.3099H20.2213C20.008 36.9165 19.7213 37.3765 19.3613 37.6899C19.0013 38.0032 18.588 38.1599 18.1213 38.1599C17.788 38.1599 17.5247 38.0565 17.3313 37.8499C17.1447 37.6365 17.0513 37.3399 17.0513 36.9599C17.0513 36.8732 17.058 36.7765 17.0713 36.6699C17.0847 36.5565 17.1047 36.4365 17.1313 36.3099L17.7313 33.4999H17.4013L17.4813 33.0999ZM23.0474 33.5599V33.6199L23.1574 33.0999H24.5974L23.6074 37.7399C23.9407 37.6199 24.2007 37.4532 24.3874 37.2399C24.5807 37.0199 24.7407 36.7099 24.8674 36.3099H25.2874C25.134 36.8165 24.914 37.2232 24.6274 37.5299C24.3474 37.8365 23.9774 38.0532 23.5174 38.1799L23.3674 38.8999C23.2474 39.4599 23.0374 39.8832 22.7374 40.1699C22.4374 40.4565 22.0474 40.5999 21.5674 40.5999C21.2274 40.5999 20.954 40.5132 20.7474 40.3399C20.5474 40.1665 20.4474 39.9299 20.4474 39.6299C20.4474 39.3032 20.5807 39.0132 20.8474 38.7599C21.1207 38.5132 21.5307 38.3065 22.0774 38.1399L22.1974 37.6099C22.024 37.7899 21.8374 37.9265 21.6374 38.0199C21.4374 38.1132 21.224 38.1599 20.9974 38.1599C20.584 38.1599 20.2574 38.0199 20.0174 37.7399C19.784 37.4599 19.6674 37.0632 19.6674 36.5499C19.6674 36.1765 19.724 35.7865 19.8374 35.3799C19.9507 34.9732 20.1074 34.6032 20.3074 34.2699C20.554 33.8765 20.8407 33.5765 21.1674 33.3699C21.494 33.1565 21.8507 33.0499 22.2374 33.0499C22.4974 33.0499 22.6974 33.0965 22.8374 33.1899C22.9774 33.2765 23.0474 33.3999 23.0474 33.5599ZM22.9574 34.0399C22.9507 33.9332 22.9107 33.8465 22.8374 33.7799C22.764 33.7065 22.6674 33.6699 22.5474 33.6699C22.1807 33.6699 21.854 33.9765 21.5674 34.5899C21.2874 35.2032 21.1474 35.8099 21.1474 36.4099C21.1474 36.6699 21.184 36.8665 21.2574 36.9999C21.3307 37.1265 21.4607 37.1899 21.6474 37.1899C21.8074 37.1899 21.964 37.1165 22.1174 36.9699C22.2774 36.8232 22.3874 36.6365 22.4474 36.4099L22.9574 34.0399ZM21.9774 38.6399C21.644 38.7665 21.3974 38.8965 21.2374 39.0299C21.0774 39.1699 20.9974 39.3232 20.9974 39.4899C20.9974 39.5765 21.0307 39.6532 21.0974 39.7199C21.164 39.7865 21.244 39.8199 21.3374 39.8199C21.4507 39.8199 21.5607 39.7399 21.6674 39.5799C21.774 39.4199 21.8574 39.2032 21.9174 38.9299L21.9774 38.6399ZM25.8574 38.0999H24.4174L25.4774 33.0999H26.9174L26.7874 33.7199C27.0807 33.4732 27.3107 33.3099 27.4774 33.2299C27.6507 33.1432 27.824 33.0999 27.9974 33.0999C28.204 33.0999 28.3707 33.1732 28.4974 33.3199C28.624 33.4599 28.6874 33.6365 28.6874 33.8499C28.6874 34.0565 28.6207 34.2299 28.4874 34.3699C28.354 34.5099 28.1807 34.5799 27.9674 34.5799C27.854 34.5799 27.764 34.5532 27.6974 34.4999C27.6374 34.4465 27.594 34.3365 27.5674 34.1699C27.5474 34.0632 27.524 33.9965 27.4974 33.9699C27.4707 33.9365 27.434 33.9199 27.3874 33.9199C27.274 33.9199 27.1674 33.9432 27.0674 33.9899C26.9674 34.0365 26.8307 34.1399 26.6574 34.2999L25.8574 38.0999Z" fill="#00C0FC"/>
<path d="M5.04802 40.1321C5.04802 29.9086 5.06429 9.94313 5.04802 8.66589C5.02839 7.12378 6.69476 5.45373 8.23 5.30713C9.25426 5.20932 39.6055 5.36606 50.6246 5.39552C39.7823 5.86692 11.0989 7.30906 9.99961 7.39184C8.40241 7.51211 7.2092 8.68896 7.07023 10.8516C7.01042 11.7823 5.54889 30.0264 5.04802 40.1321Z" fill="#4B4B4B"/>
<path d="M53.2334 8.11206C53.2334 18.3356 53.2172 38.3895 53.2334 39.6667C53.2531 41.2088 51.5867 42.8789 50.0514 43.0255C49.0272 43.1233 18.9561 42.9665 7.93701 42.9371C18.7793 42.4657 48.8238 42.3131 49.9189 42.1858C50.9536 42.0655 52.2289 40.7592 52.3054 39.5341C52.3635 38.6033 52.7326 18.2178 53.2334 8.11206V8.11206Z" fill="#1E1E1E"/>
<defs>
<linearGradient id="paint0_linear" x1="41.009" y1="41.1632" x2="18.5712" y2="5.48761" gradientUnits="userSpaceOnUse">
<stop stop-color="#2C2C2C"/>
<stop offset="1" stop-color="#1E1E1E"/>
</linearGradient>
</defs>
</svg>
