<svg width="58" height="48" viewBox="0 0 58 48" fill="none" xmlns="http://www.w3.org/2000/svg">
<path d="M49.6297 4.2627H8.47954C6.04304 4.2627 4.06787 6.31701 4.06787 8.85115V39.2574C4.06787 41.7915 6.04304 43.8458 8.47954 43.8458H49.6297C52.0662 43.8458 54.0414 41.7915 54.0414 39.2574V8.85115C54.0414 6.31701 52.0662 4.2627 49.6297 4.2627Z" fill="url(#paint0_linear)" stroke="black" stroke-linecap="round"/>
<path d="M12.9649 33.9299C12.9649 34.1565 12.9149 34.3365 12.8149 34.4699C12.7216 34.5965 12.5949 34.6599 12.4349 34.6599C12.3816 34.6599 12.3249 34.6499 12.2649 34.6299C12.2049 34.6099 12.1449 34.5799 12.0849 34.5399C12.1249 34.4332 12.1549 34.3299 12.1749 34.2299C12.1949 34.1299 12.2049 34.0365 12.2049 33.9499C12.2049 33.8165 12.1816 33.7165 12.1349 33.6499C12.0883 33.5765 12.0183 33.5399 11.9249 33.5399C11.6316 33.5399 11.3449 33.8799 11.0649 34.5599C10.7849 35.2332 10.6449 35.8732 10.6449 36.4799C10.6449 36.7865 10.6949 37.0032 10.7949 37.1299C10.9016 37.2565 11.0916 37.3199 11.3649 37.3199C11.6783 37.3199 11.9649 37.2499 12.2249 37.1099C12.4916 36.9632 12.7949 36.6965 13.1349 36.3099H13.4749C13.0883 36.9365 12.6683 37.4032 12.2149 37.7099C11.7616 38.0099 11.2649 38.1599 10.7249 38.1599C10.2116 38.1599 9.82159 38.0265 9.55492 37.7599C9.29492 37.4932 9.16492 37.0965 9.16492 36.5699C9.16492 36.1899 9.22159 35.7865 9.33492 35.3599C9.45492 34.9332 9.61826 34.5532 9.82492 34.2199C10.0716 33.8199 10.3649 33.5199 10.7049 33.3199C11.0516 33.1132 11.4349 33.0099 11.8549 33.0099C12.2216 33.0099 12.4983 33.0899 12.6849 33.2499C12.8716 33.4032 12.9649 33.6299 12.9649 33.9299ZM13.4828 33.0999H13.8128L14.1128 31.7199L15.5928 31.5199L15.2528 33.0999H15.8528L15.7728 33.4999H15.1728L14.5328 36.4999C14.5195 36.5599 14.5095 36.6165 14.5028 36.6699C14.4961 36.7165 14.4928 36.7665 14.4928 36.8199C14.4928 36.9532 14.5228 37.0499 14.5828 37.1099C14.6495 37.1632 14.7561 37.1899 14.9028 37.1899C15.0895 37.1899 15.2661 37.1099 15.4328 36.9499C15.5995 36.7832 15.7228 36.5699 15.8028 36.3099H16.2228C16.0095 36.9165 15.7228 37.3765 15.3628 37.6899C15.0028 38.0032 14.5895 38.1599 14.1228 38.1599C13.7895 38.1599 13.5261 38.0565 13.3328 37.8499C13.1461 37.6365 13.0528 37.3399 13.0528 36.9599C13.0528 36.8732 13.0595 36.7765 13.0728 36.6699C13.0861 36.5565 13.1061 36.4365 13.1328 36.3099L13.7328 33.4999H13.4028L13.4828 33.0999ZM16.8588 38.0999H15.4188L16.4788 33.0999H17.9188L17.7888 33.7199C18.0822 33.4732 18.3122 33.3099 18.4788 33.2299C18.6522 33.1432 18.8255 33.0999 18.9988 33.0999C19.2055 33.0999 19.3722 33.1732 19.4988 33.3199C19.6255 33.4599 19.6888 33.6365 19.6888 33.8499C19.6888 34.0565 19.6222 34.2299 19.4888 34.3699C19.3555 34.5099 19.1822 34.5799 18.9688 34.5799C18.8555 34.5799 18.7655 34.5532 18.6988 34.4999C18.6388 34.4465 18.5955 34.3365 18.5688 34.1699C18.5488 34.0632 18.5255 33.9965 18.4988 33.9699C18.4722 33.9365 18.4355 33.9199 18.3888 33.9199C18.2755 33.9199 18.1688 33.9432 18.0688 33.9899C17.9688 34.0365 17.8322 34.1399 17.6588 34.2999L16.8588 38.0999ZM19.4591 36.9599C19.4591 36.8732 19.4657 36.7765 19.4791 36.6699C19.4924 36.5565 19.5124 36.4365 19.5391 36.3099L20.6091 31.2999L22.0891 31.0999L20.9391 36.4999C20.9257 36.5599 20.9157 36.6165 20.9091 36.6699C20.9024 36.7165 20.8991 36.7665 20.8991 36.8199C20.8991 36.9532 20.9291 37.0499 20.9891 37.1099C21.0557 37.1632 21.1624 37.1899 21.3091 37.1899C21.4957 37.1899 21.6724 37.1099 21.8391 36.9499C22.0057 36.7832 22.1291 36.5699 22.2091 36.3099H22.6291C22.4157 36.9165 22.1291 37.3765 21.7691 37.6899C21.4091 38.0032 20.9957 38.1599 20.5291 38.1599C20.1957 38.1599 19.9324 38.0565 19.7391 37.8499C19.5524 37.6365 19.4591 37.3399 19.4591 36.9599Z" fill="#00C0FC"/>
<path d="M5.04802 40.1321C5.04802 29.9086 5.06429 9.94313 5.04802 8.66589C5.02839 7.12378 6.69476 5.45373 8.23 5.30713C9.25426 5.20932 39.6055 5.36606 50.6246 5.39552C39.7823 5.86692 11.0989 7.30906 9.99961 7.39184C8.40241 7.51211 7.2092 8.68896 7.07023 10.8516C7.01042 11.7823 5.54889 30.0264 5.04802 40.1321Z" fill="#4B4B4B"/>
<path d="M53.2334 8.11206C53.2334 18.3356 53.2172 38.3895 53.2334 39.6667C53.2531 41.2088 51.5867 42.8789 50.0514 43.0255C49.0272 43.1233 18.9561 42.9665 7.93701 42.9371C18.7793 42.4657 48.8238 42.3131 49.9189 42.1858C50.9536 42.0655 52.2289 40.7592 52.3054 39.5341C52.3635 38.6033 52.7326 18.2178 53.2334 8.11206V8.11206Z" fill="#1E1E1E"/>
<defs>
<linearGradient id="paint0_linear" x1="41.009" y1="41.1632" x2="18.5712" y2="5.48761" gradientUnits="userSpaceOnUse">
<stop stop-color="#2D2D2D"/>
<stop offset="1" stop-color="#1E1E1E"/>
</linearGradient>
</defs>
</svg>
