<svg width="58" height="48" viewBox="0 0 58 48" fill="none" xmlns="http://www.w3.org/2000/svg">
<path d="M49.6297 4.2627H8.47954C6.04304 4.2627 4.06787 6.31701 4.06787 8.85115V39.2574C4.06787 41.7915 6.04304 43.8458 8.47954 43.8458H49.6297C52.0662 43.8458 54.0414 41.7915 54.0414 39.2574V8.85115C54.0414 6.31701 52.0662 4.2627 49.6297 4.2627Z" fill="url(#paint0_linear)" stroke="black" stroke-linecap="round"/>
<path d="M16.8447 28.1181C17.4438 28.1181 17.9674 27.9366 18.4152 27.5734C18.8631 27.2103 19.1112 26.7564 19.1596 26.2117H20.7483C20.718 26.7746 20.5244 27.3102 20.1673 27.8185C19.8102 28.3269 19.3321 28.7324 18.7329 29.035C18.1398 29.3376 17.5104 29.4889 16.8447 29.4889C15.5072 29.4889 14.442 29.0441 13.6492 28.1544C12.8624 27.2587 12.469 26.0362 12.469 24.4868V24.2054C12.469 23.2492 12.6445 22.3989 12.9955 21.6544C13.3465 20.91 13.8489 20.3321 14.5025 19.9205C15.1622 19.509 15.9399 19.3032 16.8356 19.3032C17.9371 19.3032 18.851 19.633 19.5772 20.2927C20.3095 20.9524 20.6999 21.8088 20.7483 22.8618H19.1596C19.1112 22.2264 18.8691 21.7059 18.4334 21.3004C18.0037 20.8888 17.4711 20.6831 16.8356 20.6831C15.9823 20.6831 15.3195 20.9917 14.8475 21.6091C14.3815 22.2203 14.1485 23.107 14.1485 24.269V24.5867C14.1485 25.7185 14.3815 26.59 14.8475 27.2012C15.3135 27.8125 15.9792 28.1181 16.8447 28.1181ZM24.9152 17.1063V19.4848H26.749V20.7829H24.9152V26.8744C24.9152 27.2678 24.9969 27.5644 25.1603 27.7641C25.3237 27.9577 25.6021 28.0546 25.9955 28.0546C26.1892 28.0546 26.4555 28.0183 26.7944 27.9456V29.3074C26.3526 29.4284 25.9229 29.4889 25.5053 29.4889C24.7548 29.4889 24.1889 29.262 23.8077 28.8081C23.4264 28.3542 23.2357 27.7096 23.2357 26.8744V20.7829H21.4473V19.4848H23.2357V17.1063H24.9152ZM33.4669 20.9917C33.2127 20.9494 32.9373 20.9282 32.6408 20.9282C31.5393 20.9282 30.7918 21.3972 30.3984 22.3353V29.3074H28.719V19.4848H30.3531L30.3803 20.6195C30.931 19.742 31.7118 19.3032 32.7225 19.3032C33.0493 19.3032 33.2974 19.3456 33.4669 19.4303V20.9917ZM36.844 29.3074H35.1645V15.3632H36.844V29.3074Z" fill="#00C0FC"/>
<path d="M5.04802 40.1321C5.04802 29.9086 5.06429 9.94313 5.04802 8.66589C5.02839 7.12378 6.69476 5.45373 8.23 5.30713C9.25426 5.20932 39.6055 5.36606 50.6246 5.39552C39.7823 5.86692 11.0989 7.30906 9.99961 7.39184C8.40241 7.51211 7.2092 8.68896 7.07023 10.8516C7.01042 11.7823 5.54889 30.0264 5.04802 40.1321Z" fill="#4B4B4B"/>
<path d="M53.2334 8.11206C53.2334 18.3356 53.2172 38.3895 53.2334 39.6667C53.2531 41.2088 51.5867 42.8789 50.0514 43.0255C49.0272 43.1233 18.9561 42.9665 7.93701 42.9371C18.7793 42.4657 48.8238 42.3131 49.9189 42.1858C50.9536 42.0655 52.2289 40.7592 52.3054 39.5341C52.3635 38.6033 52.7326 18.2178 53.2334 8.11206V8.11206Z" fill="#1E1E1E"/>
<defs>
<linearGradient id="paint0_linear" x1="41.009" y1="41.1632" x2="18.5712" y2="5.48761" gradientUnits="userSpaceOnUse">
<stop stop-color="#2D2D2D"/>
<stop offset="1" stop-color="#1E1E1E"/>
</linearGradient>
</defs>
</svg>
