<svg width="58" height="48" viewBox="0 0 58 48" fill="none" xmlns="http://www.w3.org/2000/svg">
<path d="M49.6297 4.2627H8.47954C6.04304 4.2627 4.06787 6.31701 4.06787 8.85115V39.2574C4.06787 41.7915 6.04304 43.8458 8.47954 43.8458H49.6297C52.0662 43.8458 54.0414 41.7915 54.0414 39.2574V8.85115C54.0414 6.31701 52.0662 4.2627 49.6297 4.2627Z" fill="url(#paint0_linear)" stroke="black" stroke-linecap="round"/>
<path d="M5.04802 40.1321C5.04802 29.9086 5.06429 9.94313 5.04802 8.66589C5.02839 7.12378 6.69476 5.45373 8.23 5.30713C9.25426 5.20932 39.6055 5.36606 50.6246 5.39552C39.7823 5.86692 11.0989 7.30906 9.99961 7.39184C8.40241 7.51211 7.2092 8.68896 7.07023 10.8516C7.01042 11.7823 5.54889 30.0264 5.04802 40.1321Z" fill="#4B4B4B"/>
<path d="M53.2334 8.11206C53.2334 18.3356 53.2172 38.3895 53.2334 39.6667C53.2531 41.2088 51.5867 42.8789 50.0514 43.0255C49.0272 43.1233 18.9561 42.9665 7.93701 42.9371C18.7793 42.4657 48.8238 42.3131 49.9189 42.1858C50.9536 42.0655 52.2289 40.7592 52.3054 39.5341C52.3635 38.6033 52.7326 18.2178 53.2334 8.11206Z" fill="#1E1E1E"/>
<path fill-rule="evenodd" clip-rule="evenodd" d="M29 10C27.8427 12.8374 27.14 14.696 25.8516 17.449C26.6416 18.2864 27.6125 19.258 29.1873 20.3594C27.4942 19.6627 26.3401 18.9651 25.4771 18.2393C23.828 21.6802 21.2428 26.5797 16 36C20.1196 33.6217 23.3133 32.1547 26.2896 31.5947C26.1622 31.0458 26.0942 30.4494 26.0991 29.8301L26.1023 29.7C26.1677 27.0599 27.5414 25.0299 29.1682 25.1677C30.7951 25.3056 32.0615 27.5582 31.9961 30.1982C31.9838 30.6955 31.926 31.1733 31.8279 31.6169C34.7721 32.1931 37.9356 33.6536 42 36C41.1985 34.5243 40.4806 33.1949 39.7974 31.928C38.7212 31.0939 37.5992 30.0087 35.3096 28.8335C36.8834 29.2424 38.0113 29.7153 38.8896 30.2427C31.9433 17.3097 31.3821 15.59 29 10Z" fill="#00C0FC"/>
<path fill-rule="evenodd" clip-rule="evenodd" d="M36.3178 25.4535C30.6825 17.8047 29.3763 11.64 29.0454 10.1682C32.0515 17.1018 32.0309 17.1868 36.3178 25.4535Z" fill="white" fill-opacity="0.16568"/>
<path fill-rule="evenodd" clip-rule="evenodd" d="M29.0508 10.1016C28.9046 10.4609 28.7667 10.8112 28.6318 11.1426C28.4839 11.506 28.34 11.8561 28.2002 12.1963C28.0604 12.5364 27.9186 12.8589 27.7812 13.1865C27.6439 13.5142 27.5156 13.8381 27.375 14.1641C27.2344 14.49 27.0802 14.8193 26.9307 15.1543C26.7811 15.4893 26.625 15.8278 26.4609 16.1826C26.2968 16.5374 26.1248 16.9144 25.9404 17.2998C25.9154 17.3521 25.8897 17.4119 25.8643 17.4648C26.6521 18.2994 27.6234 19.2634 29.1904 20.3594C27.4974 19.6627 26.3464 18.9651 25.4834 18.2393C25.4384 18.3311 25.4028 18.4118 25.3564 18.5059C25.1858 18.8595 25.0028 19.2098 24.8106 19.5977C24.7647 19.6888 24.7307 19.771 24.6836 19.8643C24.4804 20.2721 24.2668 20.6942 24.0361 21.1465C23.9904 21.2355 23.9433 21.3095 23.8965 21.4004C23.7569 21.6713 23.3115 22.5257 22.8555 23.3935C22.5896 23.9005 22.3808 24.3159 22.0811 24.8789C21.9961 25.0406 21.8213 25.3644 21.7764 25.4502C25.0771 23.5922 28.638 20.8935 35.1064 23.2031C34.7825 22.5896 34.4721 22.0175 34.1924 21.4766C33.9127 20.9356 33.6592 20.4321 33.418 19.9531C33.1767 19.4741 32.9538 19.0225 32.7451 18.5947C32.5365 18.167 32.343 17.7632 32.1611 17.376C31.9792 16.9888 31.8016 16.6161 31.6406 16.2588C31.4797 15.9014 31.3295 15.5559 31.1836 15.2178C31.0377 14.8796 30.9012 14.5445 30.7646 14.2148C30.628 13.8852 30.4915 13.5691 30.3584 13.2373C30.3005 13.0929 30.2514 12.9392 30.1934 12.793C29.8327 11.946 29.4785 11.1064 29.0508 10.1016Z" fill="url(#paint1_linear)"/>
<defs>
<linearGradient id="paint0_linear" x1="41.009" y1="41.1632" x2="18.5712" y2="5.48761" gradientUnits="userSpaceOnUse">
<stop stop-color="#2D2D2D"/>
<stop offset="1" stop-color="#1E1E1E"/>
</linearGradient>
<linearGradient id="paint1_linear" x1="29.0596" y1="13.08" x2="25.5264" y2="23.7829" gradientUnits="userSpaceOnUse">
<stop stop-color="white" stop-opacity="0"/>
<stop offset="1" stop-color="white" stop-opacity="0.27451"/>
</linearGradient>
</defs>
</svg>
