<svg width="72" height="48" viewBox="0 0 72 48" fill="none" xmlns="http://www.w3.org/2000/svg">
<path d="M63.6357 4.2627H8.47954C6.04304 4.2627 4.06787 6.31701 4.06787 8.85115V39.2574C4.06787 41.7915 6.04304 43.8458 8.47954 43.8458H63.6357C66.0722 43.8458 68.0474 41.7915 68.0474 39.2574V8.85115C68.0474 6.31701 66.0722 4.2627 63.6357 4.2627Z" fill="url(#paint0_linear)" stroke="black" stroke-linecap="round"/>
<path d="M5.04802 40.1321C5.04802 29.9086 5.06429 9.94313 5.04802 8.66589C5.02839 7.12378 6.69476 5.45373 8.23 5.30713C9.25426 5.20932 53.3313 5.36606 64.3504 5.39552C53.5081 5.86692 11.0989 7.30906 9.99961 7.39184C8.40241 7.51211 7.2092 8.68896 7.07023 10.8516C7.01042 11.7823 5.54889 30.0264 5.04802 40.1321Z" fill="#4B4B4B"/>
<path d="M67.2335 8.11206C67.2335 18.3356 67.2173 38.3895 67.2335 39.6667C67.2532 41.2088 65.5868 42.8789 64.0516 43.0255C63.0273 43.1233 18.9502 42.9665 7.93115 42.9371C18.7735 42.4657 62.8239 42.3131 63.919 42.1858C64.9537 42.0655 66.229 40.7592 66.3055 39.5341C66.3636 38.6033 66.7327 18.2178 67.2335 8.11206V8.11206Z" fill="#1E1E1E"/>
<path d="M17.7813 28.1439C17.7813 28.2926 17.7751 28.4228 17.7627 28.5343C17.7503 28.6459 17.7317 28.7512 17.7069 28.8504C17.9548 28.7017 18.1965 28.5467 18.432 28.3856C18.6675 28.2245 18.872 28.0695 19.0456 27.9208H19.8264C19.4422 28.367 19.0146 28.7822 18.5436 29.1665C18.085 29.5383 17.5644 29.8977 16.9818 30.2448C16.6472 30.6043 16.2196 30.8831 15.699 31.0814C15.1784 31.2674 14.633 31.3603 14.0629 31.3603C13.2324 31.3603 12.5693 31.1372 12.0735 30.691C11.5901 30.2324 11.3484 29.6622 11.3484 28.9805C11.3484 28.5963 11.4414 28.2492 11.6273 27.9394C11.8132 27.6171 12.0487 27.3878 12.3338 27.2515C12.7552 26.4954 13.1457 25.6897 13.5051 24.8345C13.8769 23.9668 14.2488 22.9381 14.6206 21.7482L17.3723 21.3763C17.4095 22.3059 17.4528 23.155 17.5024 23.9235C17.552 24.6919 17.614 25.5286 17.6883 26.4334C17.7255 26.954 17.7503 27.3196 17.7627 27.5303C17.7751 27.7411 17.7813 27.9456 17.7813 28.1439ZM14.7322 23.7561C14.5711 24.2643 14.3727 24.7973 14.1372 25.3551C13.9141 25.9004 13.6105 26.5388 13.2262 27.2701C13.3626 27.332 13.4679 27.4188 13.5423 27.5303C13.6167 27.6419 13.6538 27.772 13.6538 27.9208C13.6538 28.1563 13.5733 28.367 13.4121 28.5529C13.251 28.7388 13.0589 28.8318 12.8358 28.8318C12.7118 28.8318 12.6065 28.8132 12.5197 28.776C12.433 28.7264 12.371 28.6645 12.3338 28.5901C12.3338 29.0487 12.4206 29.3834 12.5941 29.5941C12.78 29.7924 13.0713 29.8916 13.4679 29.8916C13.9761 29.8916 14.3727 29.7428 14.6578 29.4453C14.9429 29.1479 15.0854 28.7202 15.0854 28.1625C15.0854 27.989 15.0792 27.8154 15.0668 27.6419C15.0544 27.456 15.0297 27.1523 14.9925 26.7309C14.9305 26.1483 14.8809 25.6339 14.8437 25.1877C14.8066 24.7415 14.7694 24.2643 14.7322 23.7561ZM23.7238 29.2594C23.7238 29.0363 23.7486 28.7574 23.7982 28.4228C23.8602 28.0881 23.9779 27.5551 24.1514 26.8238C24.325 26.1173 24.4365 25.6092 24.4861 25.2993C24.5357 24.9894 24.5605 24.7291 24.5605 24.5184C24.5605 24.2085 24.4985 23.973 24.3745 23.8119C24.263 23.6508 24.0957 23.5702 23.8726 23.5702C23.5751 23.5702 23.2838 23.7499 22.9987 24.1094C22.726 24.4564 22.5463 24.8221 22.4596 25.2063L21.1767 31.2488H18.4994L21.1953 18.6061L23.9469 18.2343L22.943 22.9195C23.2528 22.5724 23.5875 22.3121 23.9469 22.1386C24.3064 21.9651 24.6968 21.8783 25.1182 21.8783C25.7752 21.8783 26.2833 22.0581 26.6428 22.4175C27.0022 22.7769 27.182 23.2975 27.182 23.9792C27.182 24.2643 27.1448 24.6052 27.0704 25.0018C27.0084 25.386 26.8783 25.981 26.68 26.7867C26.5188 27.4188 26.4135 27.865 26.3639 28.1253C26.3143 28.3856 26.2895 28.6025 26.2895 28.776C26.2895 29.0363 26.3515 29.2346 26.4755 29.371C26.5994 29.4949 26.7853 29.5569 27.0332 29.5569C27.3431 29.5569 27.6096 29.4515 27.8327 29.2408C28.0558 29.0301 28.3099 28.5901 28.595 27.9208H29.3758C28.9792 29.0735 28.4958 29.9349 27.9257 30.5051C27.3679 31.0753 26.6986 31.3603 25.9177 31.3603C25.2236 31.3603 24.6844 31.1744 24.3002 30.8026C23.9159 30.4183 23.7238 29.9039 23.7238 29.2594ZM33.1851 19.4799C33.1851 19.889 33.0363 20.236 32.7388 20.5211C32.4538 20.8062 32.1067 20.9487 31.6977 20.9487C31.2887 20.9487 30.9416 20.8062 30.6565 20.5211C30.3714 20.236 30.2289 19.889 30.2289 19.4799C30.2289 19.0709 30.3714 18.7239 30.6565 18.4388C30.9416 18.1413 31.2887 17.9926 31.6977 17.9926C32.1067 17.9926 32.4538 18.1413 32.7388 18.4388C33.0363 18.7239 33.1851 19.0709 33.1851 19.4799ZM28.4441 29.1293C28.4441 28.9681 28.4564 28.7884 28.4812 28.5901C28.506 28.3794 28.5432 28.1563 28.5928 27.9208L29.8571 21.9527H32.5343L31.1957 28.274C31.1709 28.3856 31.1523 28.4909 31.1399 28.5901C31.1275 28.6769 31.1213 28.7698 31.1213 28.869C31.1213 29.1169 31.1771 29.2966 31.2887 29.4082C31.4126 29.5073 31.6109 29.5569 31.8836 29.5569C32.2307 29.5569 32.5591 29.4082 32.869 29.1107C33.1789 28.8008 33.4082 28.4042 33.5569 27.9208H34.3378C33.9411 29.0487 33.4082 29.9039 32.7388 30.4865C32.0695 31.0691 31.3011 31.3603 30.4334 31.3603C29.8137 31.3603 29.3241 31.1682 28.9646 30.784C28.6176 30.3873 28.4441 29.8358 28.4441 29.1293ZM38.5136 17.3232C39.1209 17.3232 39.6353 17.5154 40.0568 17.8996C40.4906 18.2838 40.7075 18.761 40.7075 19.3312C40.7075 19.4799 40.7013 19.6163 40.6889 19.7402C40.6889 19.8642 40.6765 19.9819 40.6517 20.0935H39.7779C39.8027 19.8952 39.8151 19.7774 39.8151 19.7402C39.8151 19.6906 39.8151 19.6411 39.8151 19.5915C39.8151 19.3932 39.7469 19.2382 39.6105 19.1267C39.4866 19.0151 39.3193 18.9594 39.1086 18.9594C38.7987 18.9594 38.526 19.0895 38.2905 19.3498C38.0674 19.6101 37.9063 19.9881 37.8071 20.4839L37.491 21.9527H38.8483L38.7181 22.6964H37.3423L35.2042 32.7362C34.9811 33.7897 34.5907 34.5768 34.0329 35.0974C33.4751 35.6303 32.7562 35.8968 31.8762 35.8968C31.2689 35.8968 30.7545 35.7047 30.333 35.3205C29.8992 34.9362 29.6823 34.459 29.6823 33.8889C29.6823 33.2443 29.8992 32.7176 30.333 32.3085C30.7545 31.8995 31.6035 31.4967 32.8802 31.1L35.1298 20.4839C35.3529 19.4428 35.7496 18.6557 36.3197 18.1227C36.8899 17.5897 37.6212 17.3232 38.5136 17.3232ZM32.75 31.7136C32.0311 31.9491 31.5106 32.2218 31.1883 32.5316C30.866 32.8415 30.7049 33.2072 30.7049 33.6286C30.7049 33.7773 30.7855 33.9137 30.9466 34.0376C31.0953 34.1739 31.2627 34.2421 31.4486 34.2421C31.6841 34.2421 31.8948 34.1182 32.0807 33.8703C32.2666 33.6224 32.4092 33.2629 32.5083 32.7919L32.75 31.7136ZM39.1569 21.9527H39.7705L40.3282 19.387L43.0799 19.0151L42.4477 21.9527H43.5633L43.4145 22.6964H42.299L41.1091 28.274C41.0843 28.3856 41.0657 28.4909 41.0533 28.5901C41.0409 28.6769 41.0347 28.7698 41.0347 28.869C41.0347 29.1169 41.0905 29.2966 41.2021 29.4082C41.326 29.5073 41.5243 29.5569 41.797 29.5569C42.1441 29.5569 42.4725 29.4082 42.7824 29.1107C43.0923 28.8008 43.3216 28.4042 43.4703 27.9208H44.2512C43.8545 29.0487 43.3216 29.9039 42.6522 30.4865C41.9829 31.0691 41.2145 31.3603 40.3468 31.3603C39.7271 31.3603 39.2375 31.1682 38.878 30.784C38.531 30.3873 38.3575 29.8358 38.3575 29.1293C38.3575 28.9681 38.3699 28.7884 38.3946 28.5901C38.4194 28.3794 38.4566 28.1563 38.5062 27.9208L39.6217 22.6964H39.0082L39.1569 21.9527Z" fill="#00C0FC"/>
<defs>
<linearGradient id="paint0_linear" x1="51.3624" y1="41.1632" x2="31.659" y2="1.05501" gradientUnits="userSpaceOnUse">
<stop stop-color="#2D2D2D"/>
<stop offset="1" stop-color="#1E1E1E"/>
</linearGradient>
</defs>
</svg>
