<svg width="72" height="48" viewBox="0 0 72 48" fill="none" xmlns="http://www.w3.org/2000/svg">
<path d="M63.6357 4.2627H8.47954C6.04304 4.2627 4.06787 6.31701 4.06787 8.85115V39.2574C4.06787 41.7915 6.04304 43.8458 8.47954 43.8458H63.6357C66.0722 43.8458 68.0474 41.7915 68.0474 39.2574V8.85115C68.0474 6.31701 66.0722 4.2627 63.6357 4.2627Z" fill="url(#paint0_linear)" stroke="black" stroke-linecap="round"/>
<path d="M12.5287 36.4299C12.5287 36.5099 12.5253 36.5799 12.5187 36.6399C12.512 36.6999 12.502 36.7565 12.4887 36.8099C12.622 36.7299 12.752 36.6465 12.8787 36.5599C13.0053 36.4732 13.1153 36.3899 13.2087 36.3099H13.6287C13.422 36.5499 13.192 36.7732 12.9387 36.9799C12.692 37.1799 12.412 37.3732 12.0987 37.5599C11.9187 37.7532 11.6887 37.9032 11.4087 38.0099C11.1287 38.1099 10.8353 38.1599 10.5287 38.1599C10.082 38.1599 9.72534 38.0399 9.45867 37.7999C9.19867 37.5532 9.06867 37.2465 9.06867 36.8799C9.06867 36.6732 9.11867 36.4865 9.21867 36.3199C9.31867 36.1465 9.44534 36.0232 9.59867 35.9499C9.82534 35.5432 10.0353 35.1099 10.2287 34.6499C10.4287 34.1832 10.6287 33.6299 10.8287 32.9899L12.3087 32.7899C12.3287 33.2899 12.352 33.7465 12.3787 34.1599C12.4053 34.5732 12.4387 35.0232 12.4787 35.5099C12.4987 35.7899 12.512 35.9865 12.5187 36.0999C12.5253 36.2132 12.5287 36.3232 12.5287 36.4299ZM10.8887 34.0699C10.802 34.3432 10.6953 34.6299 10.5687 34.9299C10.4487 35.2232 10.2853 35.5665 10.0787 35.9599C10.152 35.9932 10.2087 36.0399 10.2487 36.0999C10.2887 36.1599 10.3087 36.2299 10.3087 36.3099C10.3087 36.4365 10.2653 36.5499 10.1787 36.6499C10.092 36.7499 9.98867 36.7999 9.86867 36.7999C9.80201 36.7999 9.74534 36.7899 9.69867 36.7699C9.65201 36.7432 9.61867 36.7099 9.59867 36.6699C9.59867 36.9165 9.64534 37.0965 9.73867 37.2099C9.83867 37.3165 9.99534 37.3699 10.2087 37.3699C10.482 37.3699 10.6953 37.2899 10.8487 37.1299C11.002 36.9699 11.0787 36.7399 11.0787 36.4399C11.0787 36.3465 11.0753 36.2532 11.0687 36.1599C11.062 36.0599 11.0487 35.8965 11.0287 35.6699C10.9953 35.3565 10.9687 35.0799 10.9487 34.8399C10.9287 34.5999 10.9087 34.3432 10.8887 34.0699ZM15.7249 37.0299C15.7249 36.9099 15.7383 36.7599 15.7649 36.5799C15.7983 36.3999 15.8616 36.1132 15.9549 35.7199C16.0483 35.3399 16.1083 35.0665 16.1349 34.8999C16.1616 34.7332 16.1749 34.5932 16.1749 34.4799C16.1749 34.3132 16.1416 34.1865 16.0749 34.0999C16.0149 34.0132 15.9249 33.9699 15.8049 33.9699C15.6449 33.9699 15.4883 34.0665 15.3349 34.2599C15.1883 34.4465 15.0916 34.6432 15.0449 34.8499L14.3549 38.0999H12.9149L14.3649 31.2999L15.8449 31.0999L15.3049 33.6199C15.4716 33.4332 15.6516 33.2932 15.8449 33.1999C16.0383 33.1065 16.2483 33.0599 16.4749 33.0599C16.8283 33.0599 17.1016 33.1565 17.2949 33.3499C17.4883 33.5432 17.5849 33.8232 17.5849 34.1899C17.5849 34.3432 17.5649 34.5265 17.5249 34.7399C17.4916 34.9465 17.4216 35.2665 17.3149 35.6999C17.2283 36.0399 17.1716 36.2799 17.1449 36.4199C17.1183 36.5599 17.1049 36.6765 17.1049 36.7699C17.1049 36.9099 17.1383 37.0165 17.2049 37.0899C17.2716 37.1565 17.3716 37.1899 17.5049 37.1899C17.6716 37.1899 17.8149 37.1332 17.9349 37.0199C18.0549 36.9065 18.1916 36.6699 18.3449 36.3099H18.7649C18.5516 36.9299 18.2916 37.3932 17.9849 37.6999C17.6849 38.0065 17.3249 38.1599 16.9049 38.1599C16.5316 38.1599 16.2416 38.0599 16.0349 37.8599C15.8283 37.6532 15.7249 37.3765 15.7249 37.0299ZM20.8138 31.7699C20.8138 31.9899 20.7338 32.1765 20.5738 32.3299C20.4204 32.4832 20.2338 32.5599 20.0138 32.5599C19.7938 32.5599 19.6071 32.4832 19.4538 32.3299C19.3004 32.1765 19.2238 31.9899 19.2238 31.7699C19.2238 31.5499 19.3004 31.3632 19.4538 31.2099C19.6071 31.0499 19.7938 30.9699 20.0138 30.9699C20.2338 30.9699 20.4204 31.0499 20.5738 31.2099C20.7338 31.3632 20.8138 31.5499 20.8138 31.7699ZM18.2637 36.9599C18.2637 36.8732 18.2704 36.7765 18.2837 36.6699C18.2971 36.5565 18.3171 36.4365 18.3438 36.3099L19.0238 33.0999H20.4638L19.7438 36.4999C19.7304 36.5599 19.7204 36.6165 19.7138 36.6699C19.7071 36.7165 19.7038 36.7665 19.7038 36.8199C19.7038 36.9532 19.7338 37.0499 19.7938 37.1099C19.8604 37.1632 19.9671 37.1899 20.1138 37.1899C20.3004 37.1899 20.4771 37.1099 20.6438 36.9499C20.8104 36.7832 20.9338 36.5699 21.0138 36.3099H21.4338C21.2204 36.9165 20.9338 37.3765 20.5738 37.6899C20.2138 38.0032 19.8004 38.1599 19.3338 38.1599C19.0004 38.1599 18.7371 38.0565 18.5438 37.8499C18.3571 37.6365 18.2637 37.3399 18.2637 36.9599ZM23.6798 30.6099C24.0064 30.6099 24.2831 30.7132 24.5098 30.9199C24.7431 31.1265 24.8598 31.3832 24.8598 31.6899C24.8598 31.7699 24.8564 31.8432 24.8498 31.9099C24.8498 31.9765 24.8431 32.0399 24.8298 32.0999H24.3598C24.3731 31.9932 24.3798 31.9299 24.3798 31.9099C24.3798 31.8832 24.3798 31.8565 24.3798 31.8299C24.3798 31.7232 24.3431 31.6399 24.2698 31.5799C24.2031 31.5199 24.1131 31.4899 23.9998 31.4899C23.8331 31.4899 23.6864 31.5599 23.5598 31.6999C23.4398 31.8399 23.3531 32.0432 23.2998 32.3099L23.1298 33.0999H23.8598L23.7898 33.4999H23.0498L21.8998 38.8999C21.7798 39.4665 21.5698 39.8899 21.2698 40.1699C20.9698 40.4565 20.5831 40.5999 20.1098 40.5999C19.7831 40.5999 19.5064 40.4965 19.2798 40.2899C19.0464 40.0832 18.9298 39.8265 18.9298 39.5199C18.9298 39.1732 19.0464 38.8899 19.2798 38.6699C19.5064 38.4499 19.9631 38.2332 20.6498 38.0199L21.8598 32.3099C21.9798 31.7499 22.1931 31.3265 22.4998 31.0399C22.8064 30.7532 23.1998 30.6099 23.6798 30.6099ZM20.5798 38.3499C20.1931 38.4765 19.9131 38.6232 19.7398 38.7899C19.5664 38.9565 19.4798 39.1532 19.4798 39.3799C19.4798 39.4599 19.5231 39.5332 19.6098 39.5999C19.6898 39.6732 19.7798 39.7099 19.8798 39.7099C20.0064 39.7099 20.1198 39.6432 20.2198 39.5099C20.3198 39.3765 20.3964 39.1832 20.4498 38.9299L20.5798 38.3499ZM24.0258 33.0999H24.3558L24.6558 31.7199L26.1358 31.5199L25.7958 33.0999H26.3958L26.3158 33.4999H25.7158L25.0758 36.4999C25.0624 36.5599 25.0524 36.6165 25.0458 36.6699C25.0391 36.7165 25.0358 36.7665 25.0358 36.8199C25.0358 36.9532 25.0658 37.0499 25.1258 37.1099C25.1924 37.1632 25.2991 37.1899 25.4458 37.1899C25.6324 37.1899 25.8091 37.1099 25.9758 36.9499C26.1424 36.7832 26.2658 36.5699 26.3458 36.3099H26.7658C26.5524 36.9165 26.2658 37.3765 25.9058 37.6899C25.5458 38.0032 25.1324 38.1599 24.6658 38.1599C24.3324 38.1599 24.0691 38.0565 23.8758 37.8499C23.6891 37.6365 23.5958 37.3399 23.5958 36.9599C23.5958 36.8732 23.6024 36.7765 23.6158 36.6699C23.6291 36.5565 23.6491 36.4365 23.6758 36.3099L24.2758 33.4999H23.9458L24.0258 33.0999Z" fill="#00C0FC"/>
<path d="M5.04802 40.1321C5.04802 29.9086 5.06429 9.94313 5.04802 8.66589C5.02839 7.12378 6.69476 5.45373 8.23 5.30713C9.25426 5.20932 53.3313 5.36606 64.3504 5.39552C53.5081 5.86692 11.0989 7.30906 9.99961 7.39184C8.40241 7.51211 7.2092 8.68896 7.07023 10.8516C7.01042 11.7823 5.54889 30.0264 5.04802 40.1321Z" fill="#4B4B4B"/>
<path d="M67.2335 8.11206C67.2335 18.3356 67.2173 38.3895 67.2335 39.6667C67.2532 41.2088 65.5868 42.8789 64.0516 43.0255C63.0273 43.1233 18.9502 42.9665 7.93115 42.9371C18.7735 42.4657 62.8239 42.3131 63.919 42.1858C64.9537 42.0655 66.229 40.7592 66.3055 39.5341C66.3636 38.6033 66.7327 18.2178 67.2335 8.11206V8.11206Z" fill="#1E1E1E"/>
<defs>
<linearGradient id="paint0_linear" x1="51.3624" y1="41.1632" x2="31.659" y2="1.05501" gradientUnits="userSpaceOnUse">
<stop stop-color="#2D2D2D"/>
<stop offset="1" stop-color="#1E1E1E"/>
</linearGradient>
</defs>
</svg>
